<?xml version="1.0"?><svg width="744.09448819" height="1052.3622047" xmlns="http://www.w3.org/2000/svg" xmlns:xlink="http://www.w3.org/1999/xlink">
 <title>weighing scales reading 2</title>
 <metadata id="metadata3">Kitchen scalesScales used to weigh out quantities of food in a kitchenkitchen scales  top pan balance weighing weight weigh foodimage/svg+xml</metadata>
 <defs>
  <linearGradient id="linearGradient3132">
   <stop stop-color="#ffffff" offset="0" id="stop3134"/>
   <stop stop-color="#ffffff" stop-opacity="0" offset="1" id="stop3136"/>
  </linearGradient>
  <linearGradient id="linearGradient2210">
   <stop stop-color="#1e1e1e" offset="0" id="stop2212"/>
   <stop stop-color="#1e1e1e" stop-opacity="0" offset="1" id="stop2214"/>
  </linearGradient>
  <linearGradient id="linearGradient2200">
   <stop stop-color="#acacad" offset="0" id="stop2202"/>
   <stop stop-color="#acacad" stop-opacity="0" offset="1" id="stop2204"/>
  </linearGradient>
  <linearGradient y2="-0.200851" y1="0.500028" xlink:href="#linearGradient2210" x2="1.243653" x1="-0.001899" id="linearGradient8241"/>
  <linearGradient y2="-0.708422" y1="2.240107" xlink:href="#linearGradient2200" x2="0.98677" x1="-0.086162" id="linearGradient8243"/>
  <radialGradient xlink:href="#linearGradient3132" r="192.14655" id="radialGradient8245" gradientUnits="userSpaceOnUse" gradientTransform="matrix(4.139338493347168,0.000007534484211646486,-0.0000033565418107173173,3.4734981060028076,-1795.45947265625,-1603.4132080078125)" fy="695.37665" fx="474.73425" cy="650.80853" cx="517.55518"/>
 </defs>
 <g>
  <title>Layer 1</title>
  <use y="0" xlink:href="#g4212" x="0" width="744.09448" transform="matrix(2.4929461,-1.4393037,1.4393037,2.4929461,458.31414,1094.4736)" id="use4224" height="1052.3622"/>
  <rect transform="matrix(1.41946, 0, 0, 1.66292, -170.095, -356.667)" fill="#e5e5e3" stroke="#000000" stroke-width="3.082464" stroke-linecap="round" stroke-linejoin="round" stroke-miterlimit="4" y="363.830173" x="183.236284" width="381.21063" ry="10.061119" rx="5.963867" id="rect3114" height="271.69574"/>
  <rect transform="matrix(1.41946, 0, 0, 1.66292, -170.095, -356.667)" fill="#fefeff" stroke="#000000" stroke-width="1.664139" stroke-linecap="round" stroke-linejoin="round" stroke-miterlimit="4" y="249.700245" x="167.985524" width="437.27808" ry="10.061119" rx="5.963867" id="rect2182" height="59.109543"/>
  <rect transform="matrix(1.41946, 0, 0, 1.66292, -170.095, -356.667)" fill="url(#linearGradient8241)" stroke="#000000" stroke-width="1.664139" stroke-linecap="round" stroke-linejoin="round" stroke-miterlimit="4" y="249.700245" x="167.985524" width="437.27808" ry="10.061119" rx="5.963867" id="rect2208" height="59.109543"/>
  <rect transform="matrix(1.41946, 0, 0, 1.66292, -170.095, -356.667)" fill="#fefeff" stroke="#000000" stroke-width="1.733129" stroke-linecap="round" stroke-linejoin="round" stroke-miterlimit="4" y="268.557425" x="145.195974" width="474.28571" ry="10.061119" rx="5.963867" id="rect1307" height="59.109543"/>
  <path fill="none" fill-opacity="0.75" fill-rule="evenodd" stroke="#000000" stroke-width="1px" id="path2184" d="m683.242859,59.912647l22.235596,30.873379"/>
  <path fill="none" fill-opacity="0.75" fill-rule="evenodd" stroke="#000000" stroke-width="1px" id="path2186" d="m73.823112,57.983044l-35.412231,34.732533"/>
  <rect transform="matrix(1.41946, 0, 0, 1.66292, -170.095, -356.667)" fill="url(#linearGradient8243)" stroke="#000000" stroke-width="1.733129" stroke-linecap="round" stroke-linejoin="round" stroke-miterlimit="4" y="268.557425" x="145.195974" width="474.28571" ry="10.061119" rx="5.963867" id="rect2190" height="59.109543"/>
  <path fill="#0c0e0e" fill-rule="evenodd" stroke="#000000" stroke-width="1.058941px" id="path2218" d="m76.07428,56.562702l-33.726604,33.2859l24.692692,-2.21907l0,-8.876228l0,-11.095299l5.420341,-8.876232l-0.602257,-0.739708"/>
  <path fill="#353738" fill-rule="evenodd" stroke="#000000" stroke-width="1px" id="path2220" d="m684.634338,59.90255l20.963928,31.381721l-4.076355,-2.046631l-12.228943,-1.364418l-1.164673,-5.457672l0,-11.597603l-0.582275,-5.457726l-2.911682,-5.457672z"/>
  <rect transform="matrix(1.41946, 0, 0, 1.66292, -170.095, -356.667)" fill="#434347" stroke="#000000" stroke-width="1.079142" stroke-linecap="round" stroke-linejoin="round" stroke-miterlimit="4" y="327.085535" x="328.227264" width="97.884193" ry="10.061119" rx="5.963867" id="rect3097" height="47.19706"/>
  <rect transform="matrix(1.41946, 0, 0, 1.66292, -170.095, -356.667)" fill="url(#radialGradient8245)" fill-rule="evenodd" stroke="#000000" stroke-width="3.082464" stroke-linecap="round" stroke-linejoin="round" stroke-miterlimit="4" y="369.161833" x="183.236304" width="381.21063" ry="10.061119" rx="5.963867" id="rect3099" height="271.69574"/>
  <path fill="#fefcfe" stroke="#000000" stroke-width="3.082464" stroke-linecap="round" stroke-linejoin="round" stroke-miterlimit="4" id="rect3105" d="m624.119812,246.596893c-0.397827,0.008682 -0.795715,0.059479 -1.197693,0.103928c-171.054626,1.464493 -342.120758,-0.346207 -513.177544,0.883438c-10.05246,-2.78334 -20.907341,3.738922 -23.154869,15.901672c-3.37851,21.177917 -0.250618,43.078583 -1.242027,64.542053c0.237991,124.451019 -0.941002,248.968353 0.709732,373.377655c2.226105,14.156189 15.785851,21.12323 26.925301,17.616455c172.515518,-0.513977 345.09166,1.044067 517.568985,-0.831482c14.777893,-6.868652 13.416504,-28.976074 12.863831,-44.223145c-0.48407,-136.369202 0.974854,-272.801147 -0.798462,-409.130432c-1.884094,-9.891342 -9.635559,-18.433029 -18.497253,-18.240143zm-521.960449,10.601105c0.036514,-0.000916 0.052063,0 0.088715,0l524.178314,0c4.689941,0 8.472412,7.464264 8.472412,16.733124l0,418.38028c0,9.268799 -3.782471,16.733154 -8.472412,16.733154l-524.178314,0c-4.689865,0 -8.472382,-7.464172 -8.472382,-16.733154l0,-418.38028c0,-9.196442 3.744789,-16.617767 8.383667,-16.733124z"/>
  <rect transform="matrix(1.41946, 0, 0, 1.66292, -170.095, -356.667)" opacity="0.672222" fill="#000601" fill-opacity="0.969136" fill-rule="evenodd" stroke="#000000" stroke-width="1.560755" stroke-linecap="round" stroke-linejoin="round" stroke-miterlimit="4" y="333.46246" x="328.411415" width="96.627075" ry="2.991706" rx="2.073229" id="rect8203" height="5.208471"/>
  <rect transform="matrix(1.41946, 0, 0, 1.66292, -170.095, -356.667)" opacity="0.672222" fill="#000601" fill-opacity="0.969136" fill-rule="evenodd" stroke="#000000" stroke-width="1.560755" stroke-linecap="round" stroke-linejoin="round" stroke-miterlimit="4" y="347.97549" x="329.642185" width="96.627075" ry="2.991706" rx="2.073229" id="rect8201" height="5.208471"/>
  <g transform="matrix(1.35514, 0, 0, 1.48653, 42.8676, -787.28)" id="g6431">
   <rect fill="#cd322f" fill-rule="evenodd" stroke="#000000" stroke-width="2.976" stroke-linecap="round" stroke-linejoin="round" stroke-miterlimit="4" y="721.80194" x="225.855787" width="15.994851" ry="5.787792" rx="1.088054" id="rect6401" height="263.91504"/>
   <use x="0" y="0" xlink:href="#rect6401" width="744.09448" id="use6403" height="1052.3622"/>
   <use x="0" y="0" transform="matrix(0.866025, 0.5, -0.5, 0.866025, 458.309, -2.91349)" xlink:href="#rect6401" width="744.09448" id="use6405" height="1052.3622"/>
   <use x="0" y="0" transform="matrix(0.5, 0.866025, -0.866025, 0.5, 856.673, 223.718)" xlink:href="#rect6401" width="744.09448" id="use6407" height="1052.3622"/>
   <use x="0" y="0" transform="matrix(0, 1, -1, 0, 1088.35, 619.168)" xlink:href="#rect6401" width="744.09448" id="use6409" height="1052.3622"/>
   <use x="0" y="0" transform="matrix(-0.5, 0.866025, -0.866025, -0.5, 1091.26, 1077.48)" xlink:href="#rect6401" width="744.09448" id="use6411" height="1052.3622"/>
   <use x="0" y="0" transform="matrix(-0.866025, 0.5, -0.5, -0.866025, 864.633, 1475.84)" xlink:href="#rect6401" width="744.09448" id="use6413" height="1052.3622"/>
   <use x="0" y="0" transform="matrix(-1, 0, 0, -1, 469.182, 1707.52)" xlink:href="#rect6401" width="744.09448" id="use6415" height="1052.3622"/>
   <use x="0" y="0" transform="matrix(-0.866025, -0.5, 0.5, -0.866025, 10.8733, 1710.43)" xlink:href="#rect6401" width="744.09448" id="use6417" height="1052.3622"/>
   <use x="0" y="0" transform="matrix(-0.5, -0.866025, 0.866025, -0.5, -387.491, 1483.8)" xlink:href="#rect6401" width="744.09448" id="use6419" height="1052.3622"/>
   <use x="0" y="0" transform="matrix(0, -1, 1, 0, -619.168, 1088.35)" xlink:href="#rect6401" width="744.09448" id="use6421" height="1052.3622"/>
   <use x="0" y="0" transform="matrix(0.5, -0.866025, 0.866025, 0.5, -622.082, 630.042)" xlink:href="#rect6401" width="744.09448" id="use6423" height="1052.3622"/>
   <use x="0" y="0" transform="matrix(0.866025, -0.5, 0.5, 0.866025, -395.451, 231.678)" stroke="#55795a" xlink:href="#rect6401" width="744.09448" id="use6425" height="1052.3622"/>
   <path fill="#fcfefc" fill-rule="evenodd" stroke-width="2.976" stroke-linecap="round" stroke-linejoin="round" stroke-miterlimit="4" id="path6427" d="m264.022583,955.117981a109.290161,101.295715 0 1 1 0.494965,-0.132935"/>
   <path fill="#fcfefc" fill-rule="evenodd" stroke-width="2.976" stroke-linecap="round" stroke-linejoin="round" stroke-miterlimit="4" id="path6429" d="m264.022583,955.117981a109.290161,101.295715 0 1 1 0.494965,-0.132935"/>
  </g>
  <path transform="rotate(47.4331, 411.02, 482.785)" fill="#c30601" fill-rule="evenodd" stroke="#000000" stroke-width="1.75438" stroke-linecap="round" stroke-linejoin="round" stroke-miterlimit="4" id="path6448" d="m463.215546,418.168182c-1.016602,-0.818573 -4.052612,0.997925 -6.857513,4.117462l-63.94577,71.118805c-0.152618,-0.082306 -0.328522,-0.143829 -0.483215,-0.223663c-13.807648,-7.121643 -30.640717,-1.424652 -37.57901,12.747986c-6.938293,14.172607 -1.367523,31.470032 12.440216,38.591736l0.121582,0.076233c13.798676,7.033569 30.558899,1.284851 37.476349,-12.845215c4.570923,-9.336731 3.685822,-20.029755 -1.381073,-28.271576l63.964691,-71.139832c2.849426,-3.169037 4.376038,-6.46817 3.408539,-7.384705l-7.123779,-6.748352c-0.015106,-0.014313 -0.024902,-0.025879 -0.041016,-0.038879z"/>
 </g>
</svg>